HIERARCHY
ROOT ui
{
	 OFFSET 0 0 0
	 CHANNELS 3 XPosition YPosition Z Position
	 EndSite
	 {
	 OFFSET 0 -1 0
	 }
}
ROOT li
{
	 OFFSET 0 0 0
	 CHANNELS 3 XPosition YPosition Z Position
	 EndSite
	 {
	 OFFSET 0 -1 0
	 }
}
ROOT ul
{
	 OFFSET 0 0 0
	 CHANNELS 3 XPosition YPosition Z Position
	 EndSite
	 {
	 OFFSET 0 -1 0
	 }
}
ROOT ll
{
	 OFFSET 0 0 0
	 CHANNELS 3 XPosition YPosition Z Position
	 EndSite
	 {
	 OFFSET 0 -1 0
	 }
}
ROOT tt
{
	 OFFSET 0 0 0
	 CHANNELS 3 XPosition YPosition Z Position
	 EndSite
	 {
	 OFFSET 0 -1 0
	 }
}
ROOT tb
{
	 OFFSET 0 0 0
	 CHANNELS 3 XPosition YPosition Z Position
	 EndSite
	 {
	 OFFSET 0 -1 0
	 }
}
ROOT td
{
	 OFFSET 0 0 0
	 CHANNELS 3 XPosition YPosition Z Position
	 EndSite
	 {
	 OFFSET 0 -1 0
	 }
}
ROOT v
{
	 OFFSET 0 0 0
	 CHANNELS 3 XPosition YPosition Z Position
	 EndSite
	 {
	 OFFSET 0 -1 0
	 }
}
ROOT bn
{
	 OFFSET 0 0 0
	 CHANNELS 3 XPosition YPosition Z Position
	 EndSite
	 {
	 OFFSET 0 -1 0
	 }
}
MOTION
Frames: 10
Frame Time: 0.002
0.009557162284851074	-0.0015016820430755616	0		0.5067896728515625	-2.3549853515625	0		-0.9991119995117187	0.04040890502929687	0		-0.5838409423828125	-2.3083505859375	0		1.614599365234375	-0.45669580078125	0		3.206855224609375	-0.4347583312988281	0		4.44951123046875	-0.25272686767578123	0		5.96391552734375	0.5387548828125	0		-0.46170883178710936	5.85788916015625	0		
-0.07672001647949218	0.0015648130178451537	0		0.45750872802734377	-2.344262451171875	0		-1.037407470703125	0.041081413269042966	0		-0.582193359375	-2.306045654296875	0		1.6173133544921876	-0.4534681091308594	0		3.212481201171875	-0.44160641479492185	0		4.45906298828125	-0.268648681640625	0		5.97281787109375	0.49551116943359375	0		-0.4807974853515625	5.86137646484375	0		
0.008929521560668945	-8.904539942741394E-4	0		0.488102294921875	-2.34224951171875	0		-1.0256287841796874	0.05332285690307617	0		-0.627648681640625	-2.309314208984375	0		1.581020751953125	-0.44690521240234377	0		3.2362490234375	-0.42864175415039063	0		4.45887451171875	-0.25152035522460936	0		5.97621337890625	0.51284912109375	0		-0.4438671875	5.86437353515625	0		
0.008574421882629395	-5.831620097160339E-4	0		0.4876337890625	-2.341965576171875	0		-0.999892822265625	0.06344710159301757	0		-0.5711358032226562	-2.311486328125	0		1.6196246337890625	-0.4490231018066406	0		3.208865234375	-0.4292490234375	0		4.45747119140625	-0.2554194641113281	0		5.96741552734375	0.51652294921875	0		-0.46100918579101563	5.85685498046875	0		
0.003247386932373047	0.004767092227935791	0		0.5110836181640624	-2.346903076171875	0		-1.0422957763671874	0.06018783187866211	0		-0.6195552368164062	-2.301716064453125	0		1.616191162109375	-0.45278125	0		3.194478515625	-0.427997802734375	0		4.45406689453125	-0.2573375549316406	0		5.96715185546875	0.5164668579101562	0		-0.4269988403320312	5.86288037109375	0		
0.007820756912231445	2.3326000198721885E-5	0		0.48458123779296874	-2.343398193359375	0		-1.0006387939453125	0.06417454528808594	0		-0.5891477661132812	-2.308656005859375	0		1.6078084716796874	-0.449510009765625	0		3.210951171875	-0.4410531005859375	0		4.4616142578125	-0.2633916015625	0		5.971796875	0.49545867919921877	0		-0.4810140991210938	5.86269921875	0		
-0.0026540989875793457	-0.009590824127197266	0		0.4840328979492188	-2.3431376953125	0		-1.0349801025390626	0.06885000610351563	0		-0.6507185668945312	-2.310762451171875	0		1.6153653564453125	-0.45240130615234375	0		3.207646240234375	-0.4289570007324219	0		4.45732177734375	-0.2513741607666016	0		5.96802294921875	0.5126165161132813	0		-0.4459330444335938	5.86870751953125	0		
0.0021025800704956056	0.005647665977478027	0		0.486520263671875	-2.337917236328125	0		-1.03031884765625	0.0731673583984375	0		-0.5902496337890625	-2.307990234375	0		1.6149503173828126	-0.45223895263671876	0		3.21127880859375	-0.42395266723632813	0		4.45996826171875	-0.24645547485351563	0		5.96775390625	0.5123204345703125	0		-0.43078573608398435	5.8778876953125	0		
0.0066840500831604	8.746349811553955E-4	0		0.485959228515625	-2.33768310546875	0		-1.041675537109375	0.07462620544433594	0		-0.666795654296875	-2.305962646484375	0		1.61757861328125	-0.4481239929199219	0		3.227908935546875	-0.42009677124023437	0		4.454650390625	-0.23849603271484374	0		5.974623046875	0.5117935180664063	0		-0.41073074340820315	5.873009765625	0		
0.006324710845947265	0.0011338289976119994	0		0.484373779296875	-2.340455078125	0		-1.042028564453125	0.07497415924072266	0		-0.5994471435546875	-2.316283935546875	0		1.6111158447265626	-0.454944580078125	0		3.227513916015625	-0.4201102905273438	0		4.45919580078125	-0.24665997314453125	0		5.96945703125	0.5322344360351563	0		-0.44562893676757814	5.8696328125	0		
